<?xml version="1.0" encoding="utf-8"?>
<!-- Generator: Adobe Illustrator 23.0.0, SVG Export Plug-In . SVG Version: 6.00 Build 0)  -->
<svg version="1.1" id="Layer_1" xmlns="http://www.w3.org/2000/svg" xmlns:xlink="http://www.w3.org/1999/xlink" x="0px" y="0px"
	 viewBox="0 0 257.64 195.61" style="enable-background:new 0 0 257.64 195.61;" xml:space="preserve">
<polygon style="fill:#FD9902;" points="194.27,22.01 19.43,22.01 19.43,97.8 194.27,97.8 194.27,122.26 109.28,122.26 
	109.28,177.27 157.84,177.27 157.84,195.61 36.43,195.61 36.43,177.27 84.99,177.27 84.99,122.26 0,122.26 0,0 194.27,0 "/>
<path style="fill:#FFFFFF;" d="M70.18,50l-6.88,20.4h-2.27L55.06,53l-6,17.4h-2.24L39.93,50h2.21l5.89,17.54L54.12,50h2.01l6,17.63
	L68.11,50H70.18z M91.6,50v20.4h-2.13v-9.41H76.71v9.41h-2.16V50h2.16v9.09h12.76V50H91.6z M111.03,64.94H99.67l-2.45,5.45h-2.24
	L104.3,50h2.13l9.32,20.4h-2.27L111.03,64.94z M110.25,63.19l-4.9-10.96l-4.9,10.96H110.25z M123.1,51.86h-7.17V50h16.49v1.86h-7.17
	v18.53h-2.16V51.86z M136.76,49.08c0.29,0.3,0.44,0.68,0.44,1.12c0,0.23-0.03,0.48-0.1,0.74c-0.07,0.26-0.16,0.57-0.28,0.92
	l-1.25,4.02h-1.4l1.02-4.2c-0.33-0.1-0.59-0.28-0.79-0.54s-0.29-0.58-0.29-0.95c0-0.47,0.15-0.84,0.44-1.14
	c0.29-0.29,0.66-0.44,1.11-0.44C136.1,48.62,136.47,48.78,136.76,49.08z M143.31,69.84c-1.39-0.49-2.46-1.13-3.22-1.92l0.85-1.66
	c0.74,0.74,1.72,1.34,2.94,1.79c1.22,0.46,2.49,0.69,3.79,0.69c1.83,0,3.2-0.34,4.11-1.01c0.91-0.67,1.37-1.54,1.37-2.61
	c0-0.82-0.25-1.47-0.74-1.95c-0.5-0.48-1.1-0.86-1.82-1.12s-1.72-0.55-3-0.86c-1.54-0.39-2.76-0.76-3.67-1.12
	c-0.91-0.36-1.7-0.91-2.35-1.65c-0.65-0.74-0.98-1.74-0.98-3c0-1.03,0.27-1.97,0.82-2.81c0.54-0.85,1.38-1.52,2.51-2.03
	c1.13-0.5,2.53-0.76,4.2-0.76c1.17,0,2.31,0.16,3.42,0.48c1.12,0.32,2.09,0.76,2.9,1.33l-0.73,1.72c-0.85-0.56-1.77-0.99-2.74-1.27
	s-1.92-0.42-2.86-0.42c-1.79,0-3.13,0.34-4.04,1.03c-0.9,0.69-1.36,1.58-1.36,2.67c0,0.82,0.25,1.47,0.74,1.97
	c0.5,0.5,1.12,0.87,1.86,1.14c0.75,0.26,1.75,0.55,3.02,0.86c1.5,0.37,2.7,0.73,3.63,1.09c0.92,0.36,1.71,0.9,2.35,1.63
	c0.64,0.73,0.96,1.72,0.96,2.96c0,1.03-0.28,1.97-0.83,2.81c-0.55,0.85-1.4,1.52-2.55,2.01c-1.15,0.5-2.55,0.74-4.23,0.74
	C146.15,70.57,144.69,70.32,143.31,69.84z M184.64,50v20.4h-1.78l-13.11-16.55v16.55h-2.16V50h1.78l13.14,16.55V50H184.64z
	 M205.71,68.53v1.86h-14.43V50h13.99v1.86h-11.83v7.26h10.55v1.84h-10.55v7.58H205.71z M223.57,70.39l-6.59-8.98l-6.56,8.98h-2.48
	l7.75-10.49L208.45,50h2.48l6.15,8.33l6.12-8.33h2.33l-7.23,9.85l7.78,10.55H223.57z M233.86,51.86h-7.17V50h16.49v1.86h-7.17v18.53
	h-2.16V51.86z M250.54,62.18c0.26-0.6,0.59-1.12,0.98-1.54c0.39-0.43,0.89-0.91,1.52-1.46c0.83-0.74,1.45-1.39,1.85-1.94
	c0.4-0.55,0.6-1.23,0.6-2.02c0-1.07-0.42-1.93-1.25-2.58c-0.83-0.65-1.98-0.98-3.44-0.98c-2.41,0-4.26,0.79-5.57,2.36l-1.54-1.17
	c1.65-2.02,4.07-3.03,7.26-3.03c2.04,0,3.67,0.46,4.88,1.37c1.21,0.91,1.82,2.15,1.82,3.7c0,0.8-0.13,1.5-0.39,2.11
	c-0.26,0.61-0.58,1.13-0.96,1.56c-0.38,0.43-0.88,0.92-1.5,1.49c-0.84,0.76-1.46,1.43-1.87,2.03c-0.41,0.59-0.61,1.33-0.61,2.2
	h-2.16C250.14,63.48,250.28,62.78,250.54,62.18z M250.14,70.09c-0.29-0.3-0.44-0.66-0.44-1.06c0-0.43,0.14-0.78,0.44-1.06
	s0.65-0.42,1.08-0.42c0.45,0,0.81,0.14,1.11,0.42c0.29,0.28,0.44,0.64,0.44,1.06c0,0.41-0.15,0.76-0.45,1.06
	c-0.3,0.3-0.67,0.45-1.09,0.45C250.8,70.54,250.44,70.39,250.14,70.09z"/>
</svg>
